<svg id="Layer_1" data-name="Layer 1" xmlns="http://www.w3.org/2000/svg" xmlns:xlink="http://www.w3.org/1999/xlink" viewBox="0 0 71 57.42"><defs><style>.cls-1{fill:none;}.cls-2{fill:#0195cb;}.cls-3{fill:#019ed7;}.cls-4{clip-path:url(#clip-path);}</style><clipPath id="clip-path"><polygon class="cls-1" points="149.06 20.46 128.6 20.46 128.6 0 112.09 0 112.09 20.46 91.64 20.46 91.64 36.97 112.09 36.97 112.09 57.42 128.6 57.42 128.6 36.97 149.06 36.97 149.06 20.46"/></clipPath></defs><polygon class="cls-2" points="71 28.86 21.43 0.13 21.4 21.33 0.02 21.29 0 36.2 21.38 36.23 21.34 57.42 71 28.86"/><polygon class="cls-3" points="29.69 4.94 22.04 0.52 21.38 1.6 21.38 18.57 29.69 4.94"/><polygon class="cls-3" points="67.07 26.52 59.42 22.1 46.84 42.73 62.81 33.51 67.07 26.52"/><polygon class="cls-3" points="27.34 53.98 43.32 44.76 57.73 21.12 50.07 16.7 27.34 53.98"/><polygon class="cls-3" points="68.76 27.49 66.33 31.47 70.99 28.78 68.76 27.49"/><polygon class="cls-3" points="48.38 15.73 40.73 11.31 21.38 43.04 21.38 57.42 23.82 56.02 48.38 15.73"/><polygon class="cls-3" points="7.07 21.33 0.01 21.33 0.01 32.91 7.07 21.33"/><polygon class="cls-3" points="21.38 39.3 39.04 10.33 31.38 5.92 12.9 36.23 21.38 36.23 21.38 39.3"/><polygon class="cls-3" points="10.62 36.23 19.7 21.33 9.35 21.33 0.27 36.23 10.62 36.23"/><g class="cls-4"><rect class="cls-2" x="50.87" y="32.88" width="87.13" height="2.53" transform="translate(16.01 96.87) rotate(-58.53)"/><rect class="cls-2" x="34.19" y="37.28" width="87.13" height="2.53" transform="translate(4.29 84.74) rotate(-58.53)"/><rect class="cls-2" x="16" y="43.48" width="105.82" height="3.07" transform="translate(-5.45 80.29) rotate(-58.53)"/></g></svg>