<svg id="Layer_1" data-name="Layer 1" xmlns="http://www.w3.org/2000/svg" xmlns:xlink="http://www.w3.org/1999/xlink" viewBox="0 0 131.76 131.76"><defs><style>.cls-1{fill:none;}.cls-2{clip-path:url(#clip-path);}.cls-3{fill:#0195cb;}.cls-4{fill:#019ed7;}.cls-5{fill:#ffc969;}.cls-6{fill:#eab648;}.cls-7{fill:#078eba;}</style><clipPath id="clip-path"><circle class="cls-1" cx="65.88" cy="67.44" r="61.04"/></clipPath></defs><rect class="cls-1" width="131.76" height="131.76" rx="4.84"/><g class="cls-2"><polygon class="cls-3" points="95.95 75.11 65.36 61.84 65.36 83.07 95.95 75.11"/><polygon class="cls-4" points="34.5 70.25 65.36 61.84 65.36 83.07 60.27 84.4 34.5 70.25"/><polygon class="cls-5" points="95.95 75.11 137.22 17.3 108.84 -13.12 84.84 78 95.95 75.11"/><polygon class="cls-5" points="43.35 75.11 34.5 70.25 -9.34 15.26 21.2 -6 43.35 75.11"/><polygon class="cls-5" points="56.07 82.09 31.91 -32.28 57.8 -42.84 63.1 83.66 60.27 84.4 56.07 82.09"/><polygon class="cls-5" points="70.95 81.57 73.97 -42.84 94.51 -33.59 74.03 80.81 70.95 81.57"/><polygon class="cls-6" points="43.35 75.11 18.74 -6.1 41.56 -16.04 56.07 82.09 43.35 75.11"/><polygon class="cls-6" points="63.1 83.66 70.95 81.57 73.97 -42.84 57.8 -42.84 63.1 83.66"/><polygon class="cls-6" points="74.03 80.81 84.84 78 111.77 -22.48 94.51 -33.59 74.03 80.81"/><polygon class="cls-4" points="60.27 84.4 60.27 124.94 95.95 115.44 95.95 75.11 60.27 84.4"/><polygon class="cls-3" points="60.27 84.4 34.5 70.25 34.5 107.2 60.27 124.94 60.27 84.4"/><polygon class="cls-7" points="60.27 84.4 53.55 108.33 34.5 97.59 34.5 86.76 60.27 84.4"/><polygon class="cls-3" points="34.5 70.25 19.98 87.66 45.57 101.54 60.27 84.4 34.5 70.25"/><polygon class="cls-7" points="60.27 84.4 66.83 106.98 95.95 99.23 96.13 87.39 60.27 84.4"/><polygon class="cls-4" points="60.27 84.4 73 101.06 111.55 90.31 95.95 75.11 60.27 84.4"/><polygon class="cls-4" points="35.45 44.9 34.84 60.45 36.22 61 36.01 44.9 35.45 44.9"/><polygon class="cls-3" points="37.1 60.49 36.21 60.49 36.01 44.9 36.68 44.9 37.1 60.49"/><polygon class="cls-4" points="37.48 45.16 37.98 61 37.1 60.49 36.68 44.9 37.48 45.16"/><polygon class="cls-3" points="37.5 44.9 37.82 44.77 38.53 60.38 37.98 61 37.34 44.9 37.5 44.9"/><path class="cls-3" d="M43.38,34.9V54.72S73.18,61.1,91.48,56V31.26Z"/><polygon class="cls-4" points="28.91 32.54 68.51 23.58 108.11 29.99 67.28 41.01 28.91 32.54"/><polygon class="cls-3" points="67.43 31.26 36.21 34.15 37.97 34.54 67.43 31.8 67.43 31.26"/><polygon class="cls-3" points="36.21 34.15 36.21 42.81 37.29 42.81 37.97 34.54 36.21 34.15"/><path class="cls-4" d="M36,42.75h1.29a.65.65,0,0,1,.65.65v1.14a1.29,1.29,0,0,1-1.29,1.29h0a1.29,1.29,0,0,1-1.29-1.29V43.4a.65.65,0,0,1,.65-.65Z"/><path class="cls-3" d="M36.93,42.75s0,3-.55,3a1.17,1.17,0,0,1-.93-.89s-.14-.16-.06-1.5a.65.65,0,0,1,.65-.65Z"/></g></svg>