<svg id="Layer_1" data-name="Layer 1" xmlns="http://www.w3.org/2000/svg" viewBox="0 0 384.54 200.13"><defs><style>.cls-1{fill:#ffc969;}.cls-2,.cls-3,.cls-4,.cls-5,.cls-6{fill:none;stroke:#0195cb;stroke-linecap:round;stroke-linejoin:round;stroke-width:3px;}.cls-3{stroke-dasharray:12.03 12.03;}.cls-4{stroke-dasharray:12.37 12.37;}.cls-5{stroke-dasharray:11.39 11.39;}.cls-6{stroke-dasharray:12.24 12.24;}.cls-7{fill:#0195cb;}.cls-8{fill:#fff;}</style></defs><polygon class="cls-1" points="154.05 198.96 364.82 1.17 25.16 69.6 154.05 198.96"/><polyline class="cls-2" points="11.15 141.3 5.18 140.69 8.61 135.76"/><line class="cls-3" x1="15.46" y1="125.87" x2="80.62" y2="31.97"/><polyline class="cls-2" points="84.05 27.02 87.47 22.09 93.41 22.9"/><line class="cls-4" x1="105.67" y1="24.57" x2="369.26" y2="60.48"/><polyline class="cls-2" points="375.39 61.31 381.33 62.12 377.65 66.86"/><line class="cls-5" x1="370.67" y1="75.86" x2="304.33" y2="161.32"/><polyline class="cls-2" points="300.84 165.82 297.16 170.56 291.19 169.95"/><line class="cls-6" x1="279.02" y1="168.7" x2="17.24" y2="141.92"/><polygon class="cls-7" points="89.67 28.61 15.96 136.15 293.21 163.65 369.13 66.38 89.67 28.61"/><path class="cls-8" d="M141.21,75.11a5.31,5.31,0,0,1,1,3.35,8.68,8.68,0,0,1-1.09,3.83,10.6,10.6,0,0,1-5.35,4.47A28.56,28.56,0,0,1,132.07,88a41.59,41.59,0,0,1-4.8,1c-1.82.3-3.72.55-5.7.73s-4.07.35-6.28.48a5.68,5.68,0,0,0,.58,2.92,9.73,9.73,0,0,0,2,2.62,23.41,23.41,0,0,0,3.19,2.55c1.26.84,2.68,1.75,4.28,2.72s3.3,2,4.89,3a20.25,20.25,0,0,1,4.13,3.52,12.36,12.36,0,0,1,2.8,4.61,10.73,10.73,0,0,1,.13,5.83,18.46,18.46,0,0,1-4.5,8.14,23.35,23.35,0,0,1-7.55,5.56,30.38,30.38,0,0,1-8.55,2.79,29.53,29.53,0,0,1-4.83.41,20.35,20.35,0,0,1-4.55-.47,15.56,15.56,0,0,1-9.6-5.68,13.28,13.28,0,0,1-2.35-5.52,18.42,18.42,0,0,1,0-7,1.75,1.75,0,0,1,2-1.47,1.8,1.8,0,0,1,1.13.71,1.62,1.62,0,0,1,.34,1.31,14.8,14.8,0,0,0,.15,6.45,10.42,10.42,0,0,0,2.25,4.23,9.66,9.66,0,0,0,3.36,2.42A19.74,19.74,0,0,0,108,131a21.3,21.3,0,0,0,7.78.11,27.51,27.51,0,0,0,7.93-2.54,22.56,22.56,0,0,0,6.64-5,14.58,14.58,0,0,0,3.46-6.46,7.27,7.27,0,0,0,0-3.73,8.19,8.19,0,0,0-2.06-3.45,20,20,0,0,0-3.74-3.11q-2.22-1.45-4.54-2.86t-4.7-3a21.79,21.79,0,0,1-4-3.34,11.72,11.72,0,0,1-1.66-2.11,8.47,8.47,0,0,1-1-2.28,10.33,10.33,0,0,1-.43-2.92c-1.18.08-2.38.15-3.61.21s-2.47.1-3.74.12c-3.28.14-6.6.3-10,.46s-6.62.41-9.75.75-6.08.78-8.85,1.32a39,39,0,0,0-7.35,2.12,16.67,16.67,0,0,0-5.18,3.18A7.36,7.36,0,0,0,61,103a1.82,1.82,0,0,1-.7,1.19,1.55,1.55,0,0,1-1.26.33,1.84,1.84,0,0,1-1.18-.67,1.6,1.6,0,0,1-.34-1.29q.6-5.06,5.54-8.38A32.07,32.07,0,0,1,74.13,90q3.23-.72,6.85-1.17c2.42-.3,4.91-.55,7.49-.76s5.18-.37,7.82-.5l7.94-.36,8.24-.35a20,20,0,0,1,7-9.51,24.76,24.76,0,0,1,5.06-3,25,25,0,0,1,5.56-1.73,15.94,15.94,0,0,1,6.77,0A7.59,7.59,0,0,1,141.21,75.11ZM138,80.66a8,8,0,0,0,.64-1.75,1.86,1.86,0,0,0-.31-1.65,3.93,3.93,0,0,0-2.85-1.38,15,15,0,0,0-4.8.2,23.29,23.29,0,0,0-4.15,1.26,21.74,21.74,0,0,0-4.06,2.17A18.72,18.72,0,0,0,119,82.6a16,16,0,0,0-2.59,4c1.89-.12,3.7-.27,5.42-.45s3.35-.41,4.9-.67Q136.29,83.93,138,80.66Z"/><path class="cls-8" d="M182.5,108.85a5,5,0,0,1-2.81-.22,6.12,6.12,0,0,1-1.77-1.11q-2.35-2.35-2.34-8.74a47.2,47.2,0,0,1,.48-7.55c-.43.31-.93.66-1.5,1a13.9,13.9,0,0,1-6.78,2.32,27.67,27.67,0,0,1-1.74,6.23,28,28,0,0,1-3.1,5.62,19.45,19.45,0,0,1-4.94,4.9,15,15,0,0,1-6,2.4c-3.53.58-6.29,0-8.29-1.73a8.71,8.71,0,0,1-1.78-2.42,9.06,9.06,0,0,1-.79-4.44,19.4,19.4,0,0,1,1-5.53,20.9,20.9,0,0,1,2.47-5.07A16,16,0,0,1,147.93,91a8.19,8.19,0,0,1,3.57-1.7,3.82,3.82,0,0,1,2.74.53,5,5,0,0,1,1.92,2.4,5.87,5.87,0,0,1,.49,1.83,8.11,8.11,0,0,1,0,2,4.79,4.79,0,0,1-1.93,3.49,1.82,1.82,0,0,1-1.33.28,1.58,1.58,0,0,1-1.13-.71,1.76,1.76,0,0,1-.28-1.33,1.6,1.6,0,0,1,.71-1.13,1.88,1.88,0,0,0,.46-1.18,3.61,3.61,0,0,0-.26-1.9c-.15-.41-.3-.64-.44-.7a.86.86,0,0,0-.34-.06,5.43,5.43,0,0,0-2.05,1,10.75,10.75,0,0,0-2.52,2.75,16.58,16.58,0,0,0-2,4.18,18.12,18.12,0,0,0-.8,4.52c0,1.92.43,3.29,1.4,4.13q1.74,1.5,5.35.9,4.93-.83,8.59-5.78a21.58,21.58,0,0,0,2.46-4.56A42.45,42.45,0,0,0,164.34,94a10,10,0,0,1-1.88-1,8.14,8.14,0,0,1-3.14-3.41,6.64,6.64,0,0,1-.57-3.79,5.4,5.4,0,0,1,1.08-2.48,3.79,3.79,0,0,1,2-1.38q2.41-.58,4.3,1.79a10.47,10.47,0,0,1,2,6.17v1a6.59,6.59,0,0,0,2.15-.51,18.5,18.5,0,0,0,2.34-1.19c.65-.43,1.25-.87,1.81-1.32a17.58,17.58,0,0,0,1.41-1.25c.44-.43.87-.86,1.27-1.28a1.79,1.79,0,0,1,1-.62,1.66,1.66,0,0,1,1.12.14,2,2,0,0,1,.82.79,1.55,1.55,0,0,1,.16,1.14,85.5,85.5,0,0,0-1.09,8.54,37.72,37.72,0,0,0,0,5.41,10.77,10.77,0,0,0,.58,2.94,4.45,4.45,0,0,0,.68,1.23,1.54,1.54,0,0,0,.54.33,1.81,1.81,0,0,0,.95,0,4.44,4.44,0,0,0,2.32-1.52,18.68,18.68,0,0,0,2.56-3.64,15.86,15.86,0,0,0,1-1.87c.27-.62.53-1.17.77-1.65s.5-1.09.69-1.6a1.67,1.67,0,0,1,.91-1,1.76,1.76,0,0,1,2.37.83,1.6,1.6,0,0,1,0,1.37,2,2,0,0,1-.18.54c-.12.32-.3.74-.53,1.28s-.51,1.14-.84,1.81-.69,1.36-1.09,2.06a25,25,0,0,1-3,4.26A8.22,8.22,0,0,1,182.5,108.85ZM162.8,85.44c-.08,0-.17.1-.29.25a2,2,0,0,0-.26.73,4.1,4.1,0,0,0,0,.58,2.75,2.75,0,0,0,.18.89A4,4,0,0,0,163,89a5.33,5.33,0,0,0,1.32,1.15l.32.13a12.52,12.52,0,0,0-.35-2.3,5.31,5.31,0,0,0-1-2,1.59,1.59,0,0,1-.24-.2,1.29,1.29,0,0,1-.19-.21Z"/><path class="cls-8" d="M196.21,106.57a4.82,4.82,0,0,1-2.81-.22,5.12,5.12,0,0,1-1.71-1.12q-2.43-2.4-2.4-8.73A68.24,68.24,0,0,1,190.55,84a1.76,1.76,0,0,1,2-1.47,2,2,0,0,1,1.17.76,1.58,1.58,0,0,1,.25,1.34,85,85,0,0,0-1.09,8.53,37.71,37.71,0,0,0,0,5.41,11,11,0,0,0,.58,3,4.8,4.8,0,0,0,.68,1.23,1.5,1.5,0,0,0,1.49.35A4.62,4.62,0,0,0,198,101.6,17.77,17.77,0,0,0,200.52,98c.36-.66.69-1.3,1-1.92s.53-1.17.77-1.65.49-1.1.69-1.61a1.7,1.7,0,0,1,.9-1,1.72,1.72,0,0,1,1.37-.08,1.7,1.7,0,0,1,1,.9A1.74,1.74,0,0,1,206.3,94a3.53,3.53,0,0,1-.21.55c-.15.32-.33.75-.56,1.28s-.51,1.14-.84,1.81S204,99,203.6,99.67a24.25,24.25,0,0,1-3,4.26A8.1,8.1,0,0,1,196.21,106.57Zm-1.69-30a2.56,2.56,0,0,1-.69,1.43,2.64,2.64,0,0,1-1.33.81,1.12,1.12,0,0,1-1.14-.25,1.34,1.34,0,0,1-.36-1.23,2.82,2.82,0,0,1,.7-1.4,2.17,2.17,0,0,1,1.33-.78,1.17,1.17,0,0,1,1.17.22A1.33,1.33,0,0,1,194.52,76.59Z"/><path class="cls-8" d="M220.65,82.28a10.85,10.85,0,0,1,.8,6.25A22.5,22.5,0,0,1,220,94.36a21.36,21.36,0,0,1-3,5.25,15.63,15.63,0,0,1-3.19,3.09,7.63,7.63,0,0,1-3.16,1.42,5.89,5.89,0,0,1-1.07.06,3.43,3.43,0,0,1-1-.19,3.5,3.5,0,0,1-1.26-.75,4.44,4.44,0,0,1-1.08-1.61,7.32,7.32,0,0,1-.43-2.8L203.59,119a1.66,1.66,0,0,1-1.47,1.55,1.34,1.34,0,0,1-.48,0,1.84,1.84,0,0,1-1.18-.67,1.7,1.7,0,0,1-.39-1.27l4.08-36.55a1.62,1.62,0,0,1,.64-1.19,1.8,1.8,0,0,1,1.3-.39,1.86,1.86,0,0,1,1.19.67,1.72,1.72,0,0,1,.39,1.28l-.21,1.94.65-.91a7.22,7.22,0,0,1,.72-.87,13.44,13.44,0,0,1,3.81-3,6.54,6.54,0,0,1,4-.66A5.5,5.5,0,0,1,220.65,82.28Zm-2.72,5.88a10,10,0,0,0,0-2.77,14.39,14.39,0,0,0-.42-1.63A2.19,2.19,0,0,0,216,82.51a3.7,3.7,0,0,0-2.18.48,7.75,7.75,0,0,0-2.36,2,22.26,22.26,0,0,0-2.61,3.84,29.61,29.61,0,0,0-2.62,7.06,1.18,1.18,0,0,1-.18.39L206,98a1.53,1.53,0,0,1,1.71-1.18,1.58,1.58,0,0,1,1.25.54,1.66,1.66,0,0,1,.42,1.27,6.07,6.07,0,0,0,.09,1.39,1.75,1.75,0,0,0,.17.54c.06.07.09.11.11.1a.17.17,0,0,1,.1.05,3.68,3.68,0,0,0,1.7-.71,10.3,10.3,0,0,0,2.65-2.58,16.67,16.67,0,0,0,2.56-4.34A17.72,17.72,0,0,0,217.93,88.16Z"/><path class="cls-8" d="M241.46,64.14a1.79,1.79,0,0,1-.08,1.36,1.63,1.63,0,0,1-1,.91L231.08,70q-.81,3.72-1.39,6.89c-.38,2.11-.7,4.09-1,5.92a49.09,49.09,0,0,0-.56,9.17,11.85,11.85,0,0,0,.51,3.46,4.54,4.54,0,0,0,.77,1.4,1.15,1.15,0,0,0,.51.36,1.74,1.74,0,0,0,1,0,4.48,4.48,0,0,0,2.32-1.51,19.1,19.1,0,0,0,2.55-3.65,16,16,0,0,0,1-1.87c.27-.62.53-1.17.77-1.65s.49-1.09.69-1.6a1.71,1.71,0,0,1,.9-1,1.7,1.7,0,0,1,1.36-.07,1.57,1.57,0,0,1,1,.91,1.83,1.83,0,0,1,.05,1.36,3.59,3.59,0,0,1-.18.54c-.13.32-.31.75-.54,1.28s-.5,1.14-.83,1.81-.69,1.36-1.09,2.06a25.59,25.59,0,0,1-3,4.26,8.1,8.1,0,0,1-4.4,2.64,4.86,4.86,0,0,1-2.94-.26,6.17,6.17,0,0,1-1.78-1.23q-1.76-1.91-2.13-6a50.81,50.81,0,0,1,.51-10.92q.39-2.68.87-5.39t1-5.43l-1.8.72-.34,0a1.73,1.73,0,0,1-1.17-.19,1.69,1.69,0,0,1-.75-.92,1.85,1.85,0,0,1,0-1.35,1.57,1.57,0,0,1,1-.91l4-1.55c.3-1.28.6-2.51.88-3.67s.56-2.26.83-3.3a1.82,1.82,0,0,1,.8-1.09,1.57,1.57,0,0,1,1.31-.22,1.73,1.73,0,0,1,1.12.83,1.69,1.69,0,0,1,.19,1.34L232,65.83l7.12-2.73a1.78,1.78,0,0,1,1.36.07A1.88,1.88,0,0,1,241.46,64.14Z"/><path class="cls-8" d="M245.24,98.43a4.81,4.81,0,0,1-2.81-.22,5.06,5.06,0,0,1-1.71-1.11q-2.43-2.41-2.41-8.74a69.12,69.12,0,0,1,1.27-12.5,1.73,1.73,0,0,1,.7-1.17,1.71,1.71,0,0,1,1.32-.3,1.9,1.9,0,0,1,1.18.76,1.59,1.59,0,0,1,.25,1.33A82.49,82.49,0,0,0,241.94,85a35,35,0,0,0,0,5.41,10.48,10.48,0,0,0,.58,3,4.8,4.8,0,0,0,.68,1.23,1.84,1.84,0,0,0,.53.33,2,2,0,0,0,1,0A4.55,4.55,0,0,0,247,93.46a17.49,17.49,0,0,0,2.56-3.62c.37-.66.69-1.3,1-1.92s.53-1.17.77-1.65.49-1.1.68-1.61a1.74,1.74,0,0,1,.91-1,1.77,1.77,0,0,1,2.45,2.19,2.13,2.13,0,0,1-.2.54q-.23.48-.57,1.29c-.23.53-.51,1.13-.83,1.8s-.69,1.36-1.09,2.07a25.09,25.09,0,0,1-3,4.25A8.08,8.08,0,0,1,245.24,98.43Zm-1.7-30a2.62,2.62,0,0,1-.68,1.43,2.73,2.73,0,0,1-1.33.82,1.17,1.17,0,0,1-1.15-.26,1.37,1.37,0,0,1-.35-1.23,2.81,2.81,0,0,1,.69-1.39,2.2,2.2,0,0,1,1.33-.79,1.21,1.21,0,0,1,1.18.22A1.31,1.31,0,0,1,243.54,68.45Z"/><path class="cls-8" d="M262.69,95.36c-3.52.58-6.28,0-8.28-1.73a8.71,8.71,0,0,1-1.78-2.42,9.06,9.06,0,0,1-.79-4.44,19.45,19.45,0,0,1,3.45-10.48,15.75,15.75,0,0,1,3.19-3.45A9.6,9.6,0,0,1,261.93,71a4.77,4.77,0,0,1,2.8,0,3.86,3.86,0,0,1,2.06,1.66,6.66,6.66,0,0,1,.79,3.84,13.33,13.33,0,0,1-1.26,4.83A16,16,0,0,1,262,86.88,14.45,14.45,0,0,1,256,90a4.1,4.1,0,0,0,2.76,1.87,9.77,9.77,0,0,0,3.41,0q5-.83,8.53-5.77a20,20,0,0,0,1.18-1.84c.34-.59.63-1.13.87-1.61a8.68,8.68,0,0,0,.64-1.54,1.81,1.81,0,0,1,.9-1A1.66,1.66,0,0,1,275.6,80a1.76,1.76,0,0,1,1,.88,1.66,1.66,0,0,1,.07,1.33,2.54,2.54,0,0,1-.17.57c-.13.34-.31.78-.56,1.31s-.57,1.16-1,1.87a23.73,23.73,0,0,1-1.37,2.13,19.21,19.21,0,0,1-5,4.91A14.91,14.91,0,0,1,262.69,95.36Zm.44-21.09a.71.71,0,0,0-.28.11,8.39,8.39,0,0,0-2.1,1.18,11.17,11.17,0,0,0-2.56,2.76,16.13,16.13,0,0,0-2,3.91,15.28,15.28,0,0,0-.85,4.25A11.78,11.78,0,0,0,260,84a12.06,12.06,0,0,0,3.14-4.25,9.71,9.71,0,0,0,1-3.26,3.28,3.28,0,0,0-.28-2C263.73,74.27,263.52,74.21,263.13,74.27Z"/><path class="cls-1" d="M221.47,118.51a6.22,6.22,0,0,1,2.55,1.81,1.58,1.58,0,0,1,.4,1,1.24,1.24,0,0,1-.53,1,1.49,1.49,0,0,1-.87.25,2.13,2.13,0,0,1-1.47-.6,4.61,4.61,0,0,0-1.66-1,6.56,6.56,0,0,0-2.12-.3,5,5,0,0,0-2.36.49,1.49,1.49,0,0,0-.92,1.36,1.69,1.69,0,0,0,.31,1,2.84,2.84,0,0,0,1.19.78,15.05,15.05,0,0,0,2.53.71,10.86,10.86,0,0,1,4.83,1.9,4,4,0,0,1,1.42,3.16,4.63,4.63,0,0,1-.78,2.61,5.23,5.23,0,0,1-2.3,1.84,8.9,8.9,0,0,1-3.64.67,12.2,12.2,0,0,1-4-.65,7.58,7.58,0,0,1-2.93-1.72,1.3,1.3,0,0,1-.41-1,1.47,1.47,0,0,1,.62-1.22,1.92,1.92,0,0,1,1.1-.44,1.65,1.65,0,0,1,1.18.57,5,5,0,0,0,1.79,1.14,6.66,6.66,0,0,0,2.53.48,5.42,5.42,0,0,0,2.76-.59,1.78,1.78,0,0,0,1-1.6,1.9,1.9,0,0,0-1-1.61,9.7,9.7,0,0,0-3.28-1.07q-6-1.16-6-4.94a3.85,3.85,0,0,1,.9-2.59,5.61,5.61,0,0,1,2.38-1.6,9.21,9.21,0,0,1,3.12-.53A9.52,9.52,0,0,1,221.47,118.51Z"/><path class="cls-1" d="M239.58,118.76a6.53,6.53,0,0,1,2.68,2.73,9,9,0,0,1,1,4.33v7.68a1.59,1.59,0,1,1-3.18,0v-7.68a5.07,5.07,0,0,0-1.36-3.83,5,5,0,0,0-3.61-1.3,5.38,5.38,0,0,0-2.39.53,4.35,4.35,0,0,0-1.69,1.44,3.54,3.54,0,0,0-.61,2v8.81a1.57,1.57,0,0,1-.43,1.14,1.67,1.67,0,0,1-2.3,0,1.54,1.54,0,0,1-.45-1.14V112.26a1.51,1.51,0,0,1,.46-1.16,1.58,1.58,0,0,1,1.14-.44,1.51,1.51,0,0,1,1.59,1.6v7.65a7,7,0,0,1,2.38-1.54,7.71,7.71,0,0,1,2.93-.55A7.93,7.93,0,0,1,239.58,118.76Z"/><path class="cls-1" d="M259.12,119a8,8,0,0,1,3.06,3.07,9.69,9.69,0,0,1,0,9,7.92,7.92,0,0,1-3.05,3.08,8.83,8.83,0,0,1-4.45,1.11,8.93,8.93,0,0,1-4.47-1.11,7.88,7.88,0,0,1-3.06-3.08,9,9,0,0,1-1.09-4.47,9.14,9.14,0,0,1,1.09-4.5,7.85,7.85,0,0,1,3.06-3.07,8.93,8.93,0,0,1,4.47-1.11A8.79,8.79,0,0,1,259.12,119Zm-7.28,2.45a5.32,5.32,0,0,0-2,2.09,6.34,6.34,0,0,0-.72,3,6.24,6.24,0,0,0,.72,3,5.36,5.36,0,0,0,2,2.08,5.83,5.83,0,0,0,5.72,0,5.26,5.26,0,0,0,2-2.08,6.35,6.35,0,0,0,.7-3,6.44,6.44,0,0,0-.7-3,5.22,5.22,0,0,0-2-2.09,5.83,5.83,0,0,0-5.72,0Z"/><path class="cls-1" d="M279.43,119a8.25,8.25,0,0,1,3.11,3.12,8.8,8.8,0,0,1,1.12,4.42,9.39,9.39,0,0,1-1,4.42,7.93,7.93,0,0,1-2.88,3.11,7.63,7.63,0,0,1-4.07,1.13,7.68,7.68,0,0,1-6-2.85v8.44a1.59,1.59,0,0,1-.44,1.16,1.6,1.6,0,0,1-2.75-1.16V126.53a8.72,8.72,0,0,1,1.14-4.42,8.42,8.42,0,0,1,7.45-4.26A8.68,8.68,0,0,1,279.43,119Zm-1.56,12.62a5.53,5.53,0,0,0,2-2.1,6,6,0,0,0,.73-3,6.17,6.17,0,0,0-.73-3,5.56,5.56,0,0,0-2-2.11,5.65,5.65,0,0,0-5.66,0,5.44,5.44,0,0,0-2,2.11,6.27,6.27,0,0,0-.72,3,6.18,6.18,0,0,0,.72,3,5.45,5.45,0,0,0,2,2.09,5.65,5.65,0,0,0,5.66,0Z"/><path class="cls-1" d="M286.43,133.58a1,1,0,0,1-.7,1.71,1,1,0,0,1-1-1,1,1,0,0,1,.3-.71.94.94,0,0,1,.7-.3A1,1,0,0,1,286.43,133.58Z"/><path class="cls-1" d="M293.72,127.53a3,3,0,0,1,1.25,1.26,4.25,4.25,0,0,1,.44,2v3.55a.72.72,0,0,1-.73.73.71.71,0,0,1-.53-.21.7.7,0,0,1-.21-.52v-3.55a2.33,2.33,0,0,0-.63-1.77,2.3,2.3,0,0,0-1.66-.6,2.39,2.39,0,0,0-1.11.25,1.94,1.94,0,0,0-.78.66,1.7,1.7,0,0,0-.28.94v4.07a.72.72,0,0,1-.2.52.71.71,0,0,1-.53.21.74.74,0,0,1-.53-.2.72.72,0,0,1-.21-.53V127.9a.76.76,0,0,1,1.27-.53.72.72,0,0,1,.2.53v.16a3,3,0,0,1,1.1-.71,3.57,3.57,0,0,1,1.35-.26A3.65,3.65,0,0,1,293.72,127.53Z"/><path class="cls-1" d="M297.05,123.94a.69.69,0,0,1,.52-.2.68.68,0,0,1,.52.2.69.69,0,0,1,.21.52v7.92a1.79,1.79,0,0,0,.2.88.61.61,0,0,0,.52.35h.37a.62.62,0,0,1,.47.2.77.77,0,0,1,.18.52.62.62,0,0,1-.28.53,1.19,1.19,0,0,1-.71.2h0a1.92,1.92,0,0,1-1.12-.34,2.34,2.34,0,0,1-.78-1,3.4,3.4,0,0,1-.27-1.38v-7.92A.68.68,0,0,1,297.05,123.94Z"/></svg>