<svg id="Layer_1" data-name="Layer 1" xmlns="http://www.w3.org/2000/svg" xmlns:xlink="http://www.w3.org/1999/xlink" viewBox="0 0 57.42 57.42"><defs><style>.cls-1{fill:none;}.cls-2{clip-path:url(#clip-path);}.cls-3{fill:#019ed7;}.cls-4{fill:#0195cb;}</style><clipPath id="clip-path"><polygon class="cls-1" points="57.42 20.46 36.97 20.46 36.97 0 20.46 0 20.46 20.46 0 20.46 0 36.97 20.46 36.97 20.46 57.42 36.97 57.42 36.97 36.97 57.42 36.97 57.42 20.46"/></clipPath></defs><g class="cls-2"><polygon class="cls-3" points="57.42 20.46 36.97 20.46 36.97 0 20.46 0 20.46 20.46 0 20.46 0 36.97 20.46 36.97 20.46 57.42 36.97 57.42 36.97 36.97 57.42 36.97 57.42 20.46"/><rect class="cls-4" x="30.16" y="6.1" width="105.82" height="3.07" transform="translate(33.19 74.5) rotate(-58.53)"/><rect class="cls-4" x="29.51" y="16.71" width="87.13" height="2.53" transform="translate(19.6 70.92) rotate(-58.53)"/><rect class="cls-4" x="10.43" y="21.11" width="87.13" height="2.53" transform="translate(6.73 56.75) rotate(-58.53)"/><rect class="cls-4" x="-7.13" y="24.59" width="87.13" height="2.53" transform="matrix(0.52, -0.85, 0.85, 0.52, -4.63, 43.43)"/><rect class="cls-4" x="-24.06" y="28.49" width="87.13" height="2.53" transform="translate(-16.05 30.86) rotate(-58.53)"/><rect class="cls-4" x="-40.76" y="32.88" width="87.13" height="2.53" transform="translate(-27.79 18.71) rotate(-58.53)"/><rect class="cls-4" x="-57.45" y="37.28" width="87.13" height="2.53" transform="translate(-39.51 6.59) rotate(-58.53)"/><rect class="cls-4" x="-75.63" y="43.48" width="105.82" height="3.07" transform="translate(-49.25 2.14) rotate(-58.53)"/></g></svg>