<svg id="Layer_1" data-name="Layer 1" xmlns="http://www.w3.org/2000/svg" xmlns:xlink="http://www.w3.org/1999/xlink" viewBox="0 0 789.28 631.51"><defs><style>.cls-1{fill:none;}.cls-2{fill:#ffc969;}.cls-3{fill:#f4f8d9;}.cls-4{clip-path:url(#clip-path);}</style><clipPath id="clip-path"><polygon class="cls-1" points="762.2 208.04 686.17 93.26 574.37 154.38 762.2 208.04"/></clipPath></defs><polygon class="cls-2" points="55.76 395.03 322.74 417.2 213.91 578.51 55.76 395.03"/><polygon class="cls-3" points="177.29 510.47 324.6 429.17 278.81 424.79 160.21 490.25 177.29 510.47"/><polygon class="cls-3" points="198.06 535.08 332.86 460.69 353.73 431.96 334.51 430.12 180.98 514.85 198.06 535.08"/><polygon class="cls-3" points="89.64 406.68 94.18 412.05 101.81 407.84 89.64 406.68"/><polygon class="cls-3" points="156.51 485.87 268.9 423.84 223.11 419.46 139.43 465.64 156.51 485.87"/><polygon class="cls-3" points="325.07 471.4 201.76 539.46 218.84 559.68 289.11 520.9 325.07 471.4"/><polygon class="cls-3" points="111.72 408.79 97.88 416.43 114.96 436.66 157.51 413.17 111.72 408.79"/><polygon class="cls-3" points="167.42 414.12 118.65 441.04 135.73 461.26 213.2 418.51 167.42 414.12"/><polygon class="cls-3" points="281.32 531.62 222.54 564.06 239.62 584.29 245.36 581.12 281.32 531.62"/><polygon class="cls-2" points="696.33 311.15 755.35 338.1 683.42 381.9 696.33 311.15"/><polygon class="cls-3" points="701.67 310.11 700.37 313.92 704.25 311.77 701.67 310.11"/><polygon class="cls-3" points="729.55 328.02 687.71 351.12 682.93 365.16 739.1 334.16 729.55 328.02"/><polygon class="cls-3" points="756.04 345.04 752.78 342.94 725.73 357.87 756.04 345.04"/><polygon class="cls-3" points="741.16 335.48 681.89 368.2 678.62 377.81 706.55 365.99 750.71 341.62 741.16 335.48"/><polygon class="cls-3" points="717.93 320.56 693.52 334.04 688.74 348.08 727.48 326.7 717.93 320.56"/><polygon class="cls-3" points="706.32 313.1 699.34 316.96 694.56 331 715.87 319.24 706.32 313.1"/><polygon class="cls-2" points="501.15 450.86 610.24 490.25 519.25 551.05 501.15 450.86"/><polygon class="cls-3" points="507.66 461.15 497.38 466.83 499.44 477.09 520.17 465.65 507.66 461.15"/><polygon class="cls-3" points="583.75 488.52 509.91 529.27 511.97 539.54 596.26 493.02 583.75 488.52"/><polygon class="cls-3" points="538.1 472.1 502.39 491.81 504.45 502.07 550.61 476.6 538.1 472.1"/><polygon class="cls-3" points="568.53 483.05 507.4 516.78 509.46 527.05 581.04 487.54 568.53 483.05"/><polygon class="cls-3" points="553.31 477.57 504.9 504.29 506.96 514.56 565.82 482.07 553.31 477.57"/><polygon class="cls-3" points="522.88 466.63 499.89 479.32 501.95 489.58 535.39 471.13 522.88 466.63"/><polygon class="cls-3" points="495.36 456.73 496.94 464.61 504.95 460.18 495.36 456.73"/><polygon class="cls-3" points="513.52 547.3 583.58 502.48 512.41 541.76 513.52 547.3"/><polygon class="cls-2" points="472.75 332.54 497.15 332.54 476.34 353.35 472.75 332.54"/><polygon class="cls-2" points="405.38 500.64 395.33 513.55 419.01 513.55 405.38 500.64"/><polygon class="cls-3" points="581.98 383.77 576.24 397.4 602.79 397.4 581.98 383.77"/><polygon class="cls-2" points="517.69 83.93 540.27 15.67 595.18 50.92 517.69 83.93"/><polygon class="cls-3" points="550.58 6.59 549.28 10.4 553.16 8.26 550.58 6.59"/><polygon class="cls-3" points="578.46 24.51 536.62 47.6 531.84 61.64 588.01 30.64 578.46 24.51"/><polygon class="cls-3" points="604.95 41.52 601.69 39.43 574.64 54.35 604.95 41.52"/><polygon class="cls-3" points="590.07 31.97 530.8 64.68 527.53 74.3 555.46 62.47 599.62 38.1 590.07 31.97"/><polygon class="cls-3" points="566.84 17.05 542.43 30.52 537.65 44.56 576.39 23.18 566.84 17.05"/><polygon class="cls-3" points="555.23 9.58 548.25 13.44 543.47 27.48 564.78 15.72 555.23 9.58"/><polygon class="cls-2" points="85.36 30.59 144.37 57.54 72.44 101.34 85.36 30.59"/><polygon class="cls-3" points="90.69 29.55 89.4 33.36 93.28 31.21 90.69 29.55"/><polygon class="cls-3" points="118.58 47.46 76.73 70.56 71.95 84.6 128.12 53.6 118.58 47.46"/><polygon class="cls-3" points="145.07 64.48 141.8 62.39 114.76 77.31 145.07 64.48"/><polygon class="cls-3" points="130.19 54.92 70.92 87.64 67.65 97.25 95.58 85.43 139.74 61.06 130.19 54.92"/><polygon class="cls-3" points="106.96 40 82.55 53.48 77.77 67.52 116.51 46.14 106.96 40"/><polygon class="cls-3" points="95.35 32.54 88.36 36.4 83.58 50.44 104.89 38.68 95.35 32.54"/><polygon class="cls-2" points="272.72 111.64 455.99 223.01 265.67 323.11 272.72 111.64"/><polygon class="cls-3" points="275.65 136.1 255.44 147.25 259.49 167.42 300.23 144.94 275.65 136.1"/><polygon class="cls-3" points="425.15 189.87 280.06 269.95 284.1 290.12 449.73 198.71 425.15 189.87"/><polygon class="cls-3" points="335.45 157.61 265.29 196.33 269.34 216.5 360.03 166.45 335.45 157.61"/><polygon class="cls-3" points="395.25 179.12 275.13 245.41 279.18 265.58 419.83 187.96 395.25 179.12"/><polygon class="cls-3" points="365.35 168.36 270.21 220.87 274.26 241.04 389.93 177.2 365.35 168.36"/><polygon class="cls-3" points="305.55 146.85 260.37 171.79 264.41 191.96 330.13 155.69 305.55 146.85"/><polygon class="cls-3" points="251.46 127.4 254.57 142.88 270.33 134.19 251.46 127.4"/><polygon class="cls-3" points="287.17 305.39 424.82 217.31 284.98 294.49 287.17 305.39"/><polygon class="cls-2" points="580.33 135 692.14 73.88 768.16 188.66 580.33 135"/><g class="cls-4"><polygon class="cls-3" points="661.54 179.11 745.78 132.61 741.23 111.43 633.33 170.99 661.54 179.11"/><polygon class="cls-3" points="730.16 198.88 756.86 184.14 752.31 162.96 701.96 190.75 730.16 198.88"/><polygon class="cls-3" points="695.85 188.99 751.32 158.38 746.77 137.2 667.64 180.87 695.85 188.99"/><polygon class="cls-3" points="735.69 85.67 599.01 161.1 627.22 169.23 740.24 106.85 735.69 85.67"/><polygon class="cls-3" points="762 208.04 757.85 188.72 736.27 200.63 762 208.04"/><polygon class="cls-3" points="732.08 68.88 574.95 154.17 592.91 159.34 734.7 81.09 732.08 68.88"/></g><polygon class="cls-2" points="453.84 44.47 459.58 60.97 442.36 56.66 453.84 44.47"/><polygon class="cls-2" points="66.39 197.88 56.34 210.79 80.02 210.79 66.39 197.88"/><polygon class="cls-3" points="143.87 159.85 133.82 167.03 151.04 175.63 143.87 159.85"/><rect class="cls-1" width="789.28" height="631.51"/></svg>