<svg id="Layer_1" data-name="Layer 1" xmlns="http://www.w3.org/2000/svg" viewBox="0 0 1787.86 1596.53"><defs><style>.cls-1,.cls-3{fill:none;}.cls-1{stroke:#019ed7;stroke-linecap:round;stroke-miterlimit:10;stroke-width:7px;}.cls-1,.cls-2{opacity:0.3;}.cls-2{fill:#0195cb;}</style></defs><path class="cls-1" d="M144.85,876.11c-7,9.08-15.94,2.19-23,11.27s1.88,16-5.15,25.06-15.93,2.18-23,11.27,1.87,16-5.16,25S72.68,951,65.65,960s1.88,16-5.15,25.06-15.94,2.19-23,11.27"/><path class="cls-1" d="M1066.78,205.08c-7,9.08-15.94,2.19-23,11.27s1.88,16-5.15,25.06-15.94,2.19-23,11.27,1.88,16-5.15,25.06-15.94,2.19-23,11.27,1.88,16-5.15,25.06-15.94,2.19-23,11.27"/><path class="cls-1" d="M788.7,996.37c-7,9.08-15.93,2.19-23,11.27s1.88,16-5.15,25.06-15.94,2.19-23,11.27,1.88,16-5.15,25.06-15.94,2.19-23,11.27,1.88,16-5.15,25.06-15.94,2.19-23,11.28"/><path class="cls-1" d="M355.38,586.29c-9.86-5.89-4.08-15.56-13.94-21.45s-15.63,3.77-25.49-2.12-4.08-15.56-13.94-21.45-15.63,3.77-25.49-2.12-4.08-15.56-13.94-21.45-15.64,3.77-25.49-2.12S233,500,223.15,494.12"/><path class="cls-1" d="M1676.5,272.9c-9.86-5.89-4.08-15.56-13.94-21.45s-15.64,3.77-25.49-2.12-4.08-15.56-13.94-21.46-15.64,3.78-25.49-2.12-4.08-15.55-13.94-21.45-15.64,3.78-25.5-2.12-4.08-15.56-13.94-21.45"/><path class="cls-1" d="M1318.21,1241.86c-9.86-5.89-4.08-15.55-13.94-21.45s-15.64,3.78-25.5-2.12-4.08-15.56-13.93-21.45-15.64,3.77-25.5-2.12-4.08-15.56-13.94-21.45-15.63,3.77-25.49-2.12-4.08-15.56-13.94-21.45"/><path class="cls-1" d="M1376.14,787.3c-9.86-5.89-4.08-15.56-13.94-21.45s-15.63,3.77-25.49-2.12-4.08-15.56-13.94-21.45-15.63,3.77-25.49-2.12-4.08-15.56-13.94-21.46-15.64,3.78-25.5-2.12-4.08-15.56-13.93-21.45"/><polygon class="cls-2" points="144.85 159.07 111.36 153.2 144.57 131.71 144.85 159.07"/><polygon class="cls-2" points="767.7 722.49 734.21 716.62 767.41 695.13 767.7 722.49"/><polygon class="cls-2" points="1605.98 1318.8 1594.19 1286.91 1629.48 1304.78 1605.98 1318.8"/><polygon class="cls-2" points="853.52 1464.82 820.03 1458.95 853.24 1437.46 853.52 1464.82"/><polygon class="cls-2" points="534.25 280.48 519.3 249.94 556.21 264.16 534.25 280.48"/><polygon class="cls-2" points="1408.07 368.44 1376.14 356.76 1412.62 341.46 1408.07 368.44"/><path class="cls-1" d="M295.48,1392.86c-9.85-5.89-4.08-15.56-13.93-21.45s-15.64,3.77-25.5-2.12-4.08-15.56-13.93-21.46-15.64,3.78-25.5-2.11-4.08-15.56-13.94-21.46-15.63,3.78-25.49-2.12-4.08-15.56-13.94-21.45"/><polygon class="cls-2" points="276.51 1071.77 261.57 1041.23 298.47 1055.46 276.51 1071.77"/><polygon class="cls-2" points="1736.05 586.29 1721.11 555.75 1758.01 569.98 1736.05 586.29"/><rect class="cls-3" width="1787.86" height="1596.53"/></svg>