<svg id="Layer_1" data-name="Layer 1" xmlns="http://www.w3.org/2000/svg" viewBox="0 0 636.39 173.85"><defs><style>.cls-1{fill:#0195cb;}</style></defs><path class="cls-1" d="M17.62,23.14a10.6,10.6,0,0,0,4.53,6.6"/><path class="cls-1" d="M16.17,23.54A12.17,12.17,0,0,0,21.4,31a1.51,1.51,0,0,0,2.05-.54,1.54,1.54,0,0,0-.54-2l-.42-.28-.09-.07L22.31,28c-.25-.2-.48-.42-.71-.64s-.45-.47-.66-.71l-.16-.2c-.14-.18-.09,0,0,0a1.81,1.81,0,0,1-.3-.41,11.12,11.12,0,0,1-.93-1.69c-.14-.31.08.22,0,0l-.09-.24c-.06-.16-.12-.32-.17-.48-.1-.32-.19-.65-.26-1a1.5,1.5,0,0,0-1.84-1,1.54,1.54,0,0,0-1,1.85Z"/><path class="cls-1" d="M74.31,26.44a12.89,12.89,0,0,1,2.1-10"/><path class="cls-1" d="M75.76,26a9.17,9.17,0,0,1-.21-2.21c0-.44,0-.88.07-1.32,0-.18,0-.21,0-.09,0-.1,0-.21.05-.32s.07-.38.11-.57a13.65,13.65,0,0,1,.66-2.14,12.73,12.73,0,0,1,1.26-2.21,1.5,1.5,0,0,0-2.59-1.51,14.41,14.41,0,0,0-2.25,11.17,1.52,1.52,0,0,0,1.84,1.05A1.53,1.53,0,0,0,75.76,26Z"/><path class="cls-1" d="M195.87,17.67H201a1.5,1.5,0,0,0,0-3h-5.14a1.5,1.5,0,1,0,0,3Z"/><path class="cls-1" d="M308.54,45.19a23.35,23.35,0,0,1,7,.32"/><path class="cls-1" d="M308.54,46.69a23.54,23.54,0,0,1,3.46-.11c.57,0,1.13.07,1.7.14,0,0,.48.06.14,0l.4.06.94.17a1.5,1.5,0,0,0,.79-2.9,25,25,0,0,0-7.43-.37,1.54,1.54,0,0,0-1.5,1.5,1.52,1.52,0,0,0,1.5,1.5Z"/><path class="cls-1" d="M411.21,27.56a40,40,0,0,1,12.37-5.2"/><path class="cls-1" d="M412,28.85a39.58,39.58,0,0,1,12-5.05c1.88-.44,1.09-3.34-.79-2.89a42.12,42.12,0,0,0-12.73,5.35c-1.63,1-.13,3.63,1.51,2.59Z"/><path class="cls-1" d="M464.69,37.21h15.9"/><path class="cls-1" d="M464.69,38.71h15.9a1.5,1.5,0,0,0,0-3h-15.9a1.5,1.5,0,0,0,0,3Z"/><path class="cls-1" d="M20.43,131.66a40,40,0,0,1,12.37-5.2"/><path class="cls-1" d="M21.18,133a39.79,39.79,0,0,1,12-5c1.87-.44,1.08-3.34-.8-2.89a42.37,42.37,0,0,0-12.73,5.35c-1.63,1-.12,3.63,1.51,2.59Z"/><path class="cls-1" d="M73.91,141.31h15.9"/><path class="cls-1" d="M73.91,142.81h15.9a1.5,1.5,0,0,0,0-3H73.91a1.5,1.5,0,0,0,0,3Z"/><path class="cls-1" d="M538.56,18v4.2"/><path class="cls-1" d="M537.06,18v4.2a1.5,1.5,0,1,0,3,0V18a1.5,1.5,0,1,0-3,0Z"/><path class="cls-1" d="M583.5,39.73l14.43-4.42"/><path class="cls-1" d="M583.9,41.17l14.43-4.42c1.84-.56,1-3.46-.8-2.89L583.1,38.28c-1.84.56-1.06,3.46.8,2.89Z"/><path class="cls-1" d="M285.89,116.61v4.21"/><path class="cls-1" d="M284.39,116.61v4.21a1.51,1.51,0,0,0,1.5,1.5,1.53,1.53,0,0,0,1.5-1.5v-4.21a1.5,1.5,0,0,0-3,0Z"/><path class="cls-1" d="M330.83,138.3l14.43-4.42"/><path class="cls-1" d="M331.23,139.75l14.43-4.42c1.84-.56,1-3.46-.8-2.89l-14.43,4.42c-1.84.56-1.06,3.46.8,2.89Z"/><path class="cls-1" d="M60.51,84.3h15.9"/><path class="cls-1" d="M60.51,85.8h15.9a1.5,1.5,0,0,0,0-3H60.51a1.5,1.5,0,0,0,0,3Z"/><path class="cls-1" d="M129.64,63V67.2"/><path class="cls-1" d="M128.14,63V67.2a1.5,1.5,0,0,0,3,0V63a1.51,1.51,0,0,0-1.5-1.5,1.53,1.53,0,0,0-1.5,1.5Z"/><path class="cls-1" d="M443.54,131.78V136"/><path class="cls-1" d="M442,131.78V136a1.5,1.5,0,0,0,3,0v-4.21a1.5,1.5,0,0,0-3,0Z"/><path class="cls-1" d="M174.58,92.55,189,88.13"/><path class="cls-1" d="M175,94l14.42-4.42c1.84-.56,1.06-3.46-.79-2.89L174.18,91.1c-1.84.57-1.06,3.46.8,2.89Z"/><path class="cls-1" d="M47.58,38.76l7.54,5.78"/><path class="cls-1" d="M46.82,40.06l7.54,5.78a1.51,1.51,0,0,0,2-.54,1.56,1.56,0,0,0-.53-2.06l-7.54-5.77a1.51,1.51,0,0,0-2.06.54,1.54,1.54,0,0,0,.54,2.05Z"/><path class="cls-1" d="M247.2,75.11a10.56,10.56,0,0,0,4.54,6.59"/><path class="cls-1" d="M245.76,75.5A12.15,12.15,0,0,0,251,83a1.51,1.51,0,0,0,2.05-.54,1.53,1.53,0,0,0-.53-2,4.43,4.43,0,0,1-.42-.29s-.28-.21-.09-.06L251.9,80c-.25-.21-.49-.42-.72-.65s-.44-.46-.65-.7l-.16-.2c-.15-.18-.1,0,0,0-.11-.07-.21-.3-.29-.41a11.48,11.48,0,0,1-.94-1.68c-.14-.31.09.22,0,0s-.07-.16-.09-.23-.12-.32-.17-.48c-.1-.33-.19-.65-.26-1a1.51,1.51,0,0,0-1.85-1,1.53,1.53,0,0,0-1,1.84Z"/><path class="cls-1" d="M494.49,83.19V87.4"/><path class="cls-1" d="M493,83.19V87.4a1.5,1.5,0,0,0,3,0V83.19a1.5,1.5,0,0,0-3,0Z"/><path class="cls-1" d="M612.05,95.31a10.56,10.56,0,0,0,4.54,6.59"/><path class="cls-1" d="M610.6,95.71a12.17,12.17,0,0,0,5.23,7.49,1.51,1.51,0,0,0,2-.54,1.53,1.53,0,0,0-.54-2l-.42-.29s-.27-.21-.09-.06-.07-.06-.08-.07c-.25-.21-.49-.42-.72-.65a8.55,8.55,0,0,1-.65-.7l-.17-.2c-.14-.18-.09,0,0,0a1.75,1.75,0,0,1-.29-.42,10.62,10.62,0,0,1-.94-1.68c-.14-.31.08.22,0,0l-.09-.23c-.06-.16-.11-.32-.16-.48a8.32,8.32,0,0,1-.26-1,1.52,1.52,0,0,0-1.85-1,1.53,1.53,0,0,0-1,1.85Z"/><path class="cls-1" d="M410.92,75.11a12.92,12.92,0,0,1,2.1-10"/><path class="cls-1" d="M412.37,74.71a9.7,9.7,0,0,1-.21-2.21c0-.44,0-.88.07-1.32,0-.19,0-.22,0-.09a3.06,3.06,0,0,1,.05-.32c0-.19.07-.38.11-.57a13.32,13.32,0,0,1,.66-2.14,12.37,12.37,0,0,1,1.26-2.21,1.5,1.5,0,1,0-2.59-1.51,14.4,14.4,0,0,0-2.25,11.17,1.5,1.5,0,0,0,1.84,1,1.52,1.52,0,0,0,1.05-1.84Z"/><path class="cls-1" d="M180.88,151.32a12.85,12.85,0,0,1,2.09-10"/><path class="cls-1" d="M182.32,150.92a9.65,9.65,0,0,1-.21-2.21c0-.44,0-.88.07-1.31,0-.19,0-.22,0-.09,0-.11,0-.22.05-.33s.07-.38.11-.56a13.32,13.32,0,0,1,.66-2.14,12.81,12.81,0,0,1,1.26-2.22,1.51,1.51,0,0,0-.54-2.05,1.53,1.53,0,0,0-2,.54,14.41,14.41,0,0,0-2.25,11.17,1.5,1.5,0,1,0,2.89-.8Z"/><path class="cls-1" d="M347.56,78.81l7.54,5.78"/><path class="cls-1" d="M346.8,80.11l7.54,5.78a1.52,1.52,0,0,0,2.06-.54,1.54,1.54,0,0,0-.54-2l-7.54-5.78a1.49,1.49,0,0,0-2.05.54,1.55,1.55,0,0,0,.53,2Z"/><path class="cls-1" d="M545.65,116.46a23.35,23.35,0,0,1,7,.32"/><path class="cls-1" d="M545.65,118a23.54,23.54,0,0,1,3.46-.11c.57,0,1.13.07,1.7.13l.14,0,.4.06.94.16a1.5,1.5,0,1,0,.79-2.89,25,25,0,0,0-7.43-.37,1.54,1.54,0,0,0-1.5,1.5c0,.74.67,1.59,1.5,1.5Z"/><path class="cls-1" d="M584.67,150.08l7.54,5.78"/><path class="cls-1" d="M583.91,151.38l7.54,5.77a1.51,1.51,0,0,0,2.06-.53,1.56,1.56,0,0,0-.54-2.06l-7.54-5.77a1.5,1.5,0,0,0-2,.53,1.56,1.56,0,0,0,.53,2.06Z"/></svg>