<svg id="Layer_1" data-name="Layer 1" xmlns="http://www.w3.org/2000/svg" xmlns:xlink="http://www.w3.org/1999/xlink" viewBox="0 0 158.76 60.82"><defs><style>.cls-1,.cls-3{fill:none;}.cls-2{clip-path:url(#clip-path);}.cls-3{stroke:#0195cb;stroke-linecap:round;stroke-miterlimit:10;stroke-width:1.06px;}</style><clipPath id="clip-path"><rect class="cls-1" width="158.76" height="60.82"/></clipPath></defs><g class="cls-2"><path class="cls-3" d="M2,2a6.39,6.39,0,0,1,0,8.14,6.37,6.37,0,0,0,0,8.14,6.38,6.38,0,0,1,0,8.13,6.37,6.37,0,0,0,0,8.14,6.39,6.39,0,0,1,0,8.14,6.37,6.37,0,0,0,0,8.14c2,2,2,6.1.14,8a6.39,6.39,0,0,0,8.14,0,6.37,6.37,0,0,1,8.14,0,6.39,6.39,0,0,0,8.14,0,6.36,6.36,0,0,1,8.13,0,6.39,6.39,0,0,0,8.14,0,6.37,6.37,0,0,1,8.14,0,6.39,6.39,0,0,0,8.14,0,6.36,6.36,0,0,1,8.13,0,6.39,6.39,0,0,0,8.14,0,6.37,6.37,0,0,1,8.14,0,6.39,6.39,0,0,0,8.14,0,6.36,6.36,0,0,1,8.13,0,6.39,6.39,0,0,0,8.14,0,6.37,6.37,0,0,1,8.14,0,6.39,6.39,0,0,0,8.14,0,6.36,6.36,0,0,1,8.13,0,6.39,6.39,0,0,0,8.14,0,6.37,6.37,0,0,1,8.14,0,6.39,6.39,0,0,0,8.14,0,6.37,6.37,0,0,1,0-8.14,6.39,6.39,0,0,0,0-8.14,6.36,6.36,0,0,1,0-8.13,6.39,6.39,0,0,0,0-8.14,6.37,6.37,0,0,1,0-8.14,6.39,6.39,0,0,0,0-8.14c-2-2-2-6.1-.15-8a6.38,6.38,0,0,0-8.13,0,6.37,6.37,0,0,1-8.14,0,6.39,6.39,0,0,0-8.14,0,6.37,6.37,0,0,1-8.14,0,6.38,6.38,0,0,0-8.13,0,6.37,6.37,0,0,1-8.14,0,6.39,6.39,0,0,0-8.14,0,6.37,6.37,0,0,1-8.14,0,6.38,6.38,0,0,0-8.13,0,6.37,6.37,0,0,1-8.14,0A6.39,6.39,0,0,0,67.1,2,6.37,6.37,0,0,1,59,2a6.38,6.38,0,0,0-8.13,0,6.37,6.37,0,0,1-8.14,0,6.39,6.39,0,0,0-8.14,0,6.37,6.37,0,0,1-8.14,0,6.39,6.39,0,0,0-8.14,0,6.36,6.36,0,0,1-8.13,0A6.39,6.39,0,0,0,2,2"/></g></svg>