<svg id="Layer_1" data-name="Layer 1" xmlns="http://www.w3.org/2000/svg" xmlns:xlink="http://www.w3.org/1999/xlink" viewBox="0 0 131.76 131.76"><defs><style>.cls-1{fill:none;}.cls-2{clip-path:url(#clip-path);}.cls-3{fill:#ffd2b6;}.cls-4{fill:#019ed7;}.cls-5{fill:#0195cb;}.cls-6{fill:#0790b7;}.cls-7{fill:#0592be;}.cls-8{fill:#ffc969;}.cls-9{fill:#9b9b9b;}.cls-10{fill:#eea000;}.cls-11{fill:#ffb03b;}.cls-12{fill:#f1ae69;}</style><clipPath id="clip-path"><rect class="cls-1" x="-152.61" y="2.39" width="129.37" height="129.37" rx="7.6"/></clipPath></defs><g class="cls-2"><path class="cls-3" d="M14.88,126.63l-47.14-35.5-9.44-28.3s-.51-6.63-27.55-17.11a2.85,2.85,0,0,0-1.89,0l-18,5.87s-7,4.42-2.44,8.31,12.2,3.58,20.28.83a65.82,65.82,0,0,1,7.54,8.63,17,17,0,0,1-2,7.92c-2.13,4-2.13,10.9,2.37,19.82l-16.75,14-16.77-7-7.53-9.92-.63-3.6c-.28-2.51-2.34-5.14-4.88-5.24l-2.26-.24-4.31-4.83-.19-3.91a28,28,0,0,0-.83-4.28,7.68,7.68,0,0,0-6.23-5.72,3.57,3.57,0,0,0-2.15.2,1.16,1.16,0,0,0-.36.25l-.94.92-13-15.54a3.78,3.78,0,0,0-3.75,1.94c-1.54,3.23-.71,5.94,4.28,8.58s12.34,5.88,12.34,5.88-1.93,9.9.33,13.43,8.43,4.57,12,4.9c0,0-3.11,4.1-2.36,8.53s14.65,6.92,14.65,6.92a41.58,41.58,0,0,1,5.8,1.73l12.68,5.26,4.09,1.69a84.5,84.5,0,0,0,27.21,11.07l22.25,25.7H14.88Z"/></g><rect class="cls-1" width="131.76" height="131.76" rx="5.52"/><polygon class="cls-4" points="9.29 68.35 67.78 34.2 107.56 56.86 50.21 93.04 9.29 68.35"/><path class="cls-5" d="M51.42,115l61.75-36.17v-14s0-5-5.62-7.94L48.41,91.46Z"/><path class="cls-6" d="M9.29,68.35V90.9L51.42,115V99.4a13.65,13.65,0,0,0-1.48-5.91c-1.3-2.67-5.6-5.12-5.6-5.12Z"/><polygon class="cls-7" points="18.95 69.04 69.67 39.8 79.76 45.49 29.04 75.25 23.31 71.72 18.95 69.04"/><polygon class="cls-4" points="15.85 39.8 62.23 12.59 71.4 42.26 68.32 44.08 26.71 67.49 24.15 68.97 15.85 39.8"/><polygon class="cls-8" points="70.42 50.97 61.11 20.95 23.07 43.21 31.83 73.62 70.42 50.97"/><polygon class="cls-9" points="59.83 97.69 104.75 71.34 104.73 77.82 59.83 104.14 59.83 97.69"/><polygon class="cls-5" points="61.44 100.18 82.09 111.96 123.05 87.84 99.7 74.31 61.45 96.75 61.44 100.18"/><polygon class="cls-8" points="61.33 96.8 82.84 108.94 118.94 87.61 98.43 75.61 61.33 96.8"/><polygon class="cls-6" points="82.07 113.71 59.83 101.05 59.83 99.25 82.07 111.94 82.07 113.71"/><polygon class="cls-7" points="123.05 87.84 123.05 89.59 82.07 113.71 82.07 111.94 123.05 87.84"/><polygon class="cls-7" points="34.29 77.38 49.39 86.11 71.06 73.42 55.95 64.74 34.29 77.38"/><polygon class="cls-5" points="84.11 48.23 99.17 56.92 71.06 73.42 55.95 64.74 84.11 48.23"/><polygon class="cls-6" points="14.29 39.54 23.31 71.72 25.28 72.94 15.85 39.8 14.29 39.54"/><polygon class="cls-5" points="73.58 49.13 71.4 42.26 68.32 44.08 70.42 50.97 73.58 49.13"/><polygon class="cls-5" points="24.15 68.97 26.56 67.47 21.9 43.14 30.38 74.47 29.04 75.25 25.28 72.94 24.15 68.97"/><polygon class="cls-10" points="21.9 43.14 30.38 74.47 31.83 73.62 23.14 43.34 21.9 43.14"/><polygon class="cls-11" points="21.9 43.14 59.46 20.9 61.11 20.95 23.14 43.34 21.9 43.14"/><polygon class="cls-4" points="77.48 100.78 89.4 93.89 82.13 89.9 70.29 96.86 77.48 100.78"/><polygon class="cls-4" points="92.42 92.3 104.34 85.42 96.79 81.28 84.95 88.24 92.42 92.3"/><polygon class="cls-12" points="83.12 87.25 95.09 80.34 96.79 81.28 102.47 77.94 98.17 75.2 61.33 96.8 65.96 99.41 70.29 96.86 68.19 95.72 80.15 88.82 82.13 89.9 84.95 88.24 83.12 87.25"/><polygon class="cls-5" points="68.19 95.72 70.29 96.86 82.13 89.9 80.15 88.82 68.19 95.72"/><polygon class="cls-5" points="83.12 87.25 84.95 88.24 96.79 81.28 95.09 80.34 83.12 87.25"/><polygon class="cls-11" points="30.45 69.03 31.83 73.62 70.42 50.97 69.03 46.42 30.45 69.03"/><polygon class="cls-7" points="65.96 99.41 63.55 101.38 59.83 99.25 59.83 97.69 61.33 96.8 65.96 99.41"/><polygon class="cls-5" points="60.69 12.34 14.29 39.54 15.84 39.8 62.23 12.59 60.69 12.34"/><polygon class="cls-7" points="77.09 69.88 62.02 61.19 62.77 60.74 77.85 69.45 77.09 69.88"/><polygon class="cls-5" points="107.63 87.07 106.18 86.27 99.9 89.9 99.9 89.9 79.39 101.74 80.84 102.53 87.12 98.91 87.12 98.91 107.63 87.07"/><polygon class="cls-5" points="106.17 90.29 104.73 89.49 101.99 91.07 101.98 91.07 81.48 102.91 82.93 103.7 85.66 102.13 85.67 102.13 106.17 90.29"/></svg>